<?xml version="1.0" encoding="UTF-8" standalone="no"?>
<svg
  xmlns="http://www.w3.org/2000/svg"
  width="40"
  height="40"
  version="1.1"
  id="svg3865"
>
  <defs id="defs3860">
    <linearGradient
      y2="3"
      x2="37"
      y1="3"
      x1="3"
      id="circle_bg_gradient"
      gradientUnits="userSpaceOnUse"
    >
      <stop offset="0" stop-color="#fe5196" id="stop3855" />
      <stop offset="1" stop-color="#f77062" id="stop3857" />
    </linearGradient>
    <linearGradient
      gradientUnits="userSpaceOnUse"
      y2="3"
      x2="37"
      y1="3"
      x1="3"
      id="circle_bg_gradient-8"
    >
      <stop offset="0" stop-color="#fe5196" id="stop3888" />
      <stop offset="1" stop-color="#f77062" id="stop3890" />
    </linearGradient>
  </defs>
  <g
    id="g3863"
    transform="matrix(1.0569853,0,0,1.0569853,-1.1397059,-1.1397059)"
    style="stroke:#ffffff;stroke-opacity:1"
  >
    <circle
      id="svg_1"
      r="16"
      cy="20"
      cx="20"
      style="fill:url(#circle_bg_gradient);fill-opacity:1;stroke:#ffffff;stroke-width:2;stroke-opacity:1"
    />
  </g>
  <g
    transform="matrix(1.2509987,0,0,1.2510112,9.9900651,9.9569104)"
    class="currentLayer"
    id="g4891"
  >
    <title id="title4881">Layer 1</title>
    <g style="opacity:0.5;fill:#ffffff;fill-opacity:1" id="svg_5">
      <polygon
        style="opacity:0.5;fill:#ffffff;fill-opacity:1"
        points="1.0627427,3.0219452 2.1203911,12.194574 8.0000014,15.451572 13.87961,12.194574 14.937257,3.0219452 8.0000014,0.54842812 "
        id="svg_7"
      />
      <polygon
        style="opacity:0.5;fill:#ffffff;fill-opacity:1"
        points="13.87961,12.194574 14.937257,3.0219452 8.0000014,0.54842812 8.0000014,2.2024412 8.0000014,2.1954372 8.0000014,9.7430716 8.0000014,15.451572 "
        id="svg_9"
      />
      <path
        style="opacity:0.5;fill:#ffffff;fill-opacity:1"
        d="M 8.0000007,2.1951823 3.6632962,11.919236 h 1.61695 L 6.1520579,9.7434326 h 3.6809829 l 0.8718122,2.1758034 h 1.616949 z m 1.266735,6.2070015 h -2.53347 l 1.266735,-3.0476154 z"
        id="svg_11"
      />
    </g>
    <g style="fill:none" id="svg_1-6">
      <polygon
        style="fill:#dd0031"
        points="1.818531,3.4826531 2.7609525,11.655958 7.9999995,14.558119 13.239046,11.655958 14.181469,3.4826531 7.9999995,1.2786159 "
        id="svg_2"
      />
      <polygon
        style="fill:#c3002f"
        points="13.239046,11.655958 14.181469,3.4826531 7.9999995,1.2786159 7.9999995,2.7524323 7.9999995,2.7461905 7.9999995,9.4715366 7.9999995,14.558119 "
        id="svg_3"
      />
      <path
        style="fill:#ffffff"
        d="m 7.9999994,2.7459631 -3.864236,8.6646529 h 1.440789 l 0.776831,-1.9387577 h 3.2799528 l 0.7768308,1.9387577 h 1.440789 z M 9.1287281,8.2767338 H 6.8712706 L 7.9999994,5.5611453 Z"
        id="svg_4"
      />
    </g>
  </g>
</svg>
